<svg class="diagram-root" style="background: #f5f6f6" xmlns="http://www.w3.org/2000/svg" xmlns:xlink="http://www.w3.org/1999/xlink"><style>.diagram-root { font-family: "Helvetica Neue", sans-serif; font-size: 12px; } .t { overflow: visible; } .t-bg { y: 40; fill: #fff;   } .th { fill: #005aa0;   } .tht { fill: #fff; font-size: 14px;  } .tf { fill: #323c46; overflow: visible; } .tf.pk { fill: #005aa0; font-weight: bold; } .tf.fk { font-weight: bold; } .ty { fill: #adb1b5; font-weight: normal; text-anchor: end; } .r { fill: transparent; stroke: #c3c3c3; stroke-width: 1; } .l { stroke: 1; } .i { fill: #c2c7ce; stroke: #c2c7ce; } .i.ix { fill: #afb3b6; stroke: #000; } .fa { fill: transparent; overflow: visible; } .fa .bg.hover { fill: #f7f7f7; } .c { cy: 12; r: 4; stroke: #d2d2dc; fill: #d2d2dc; } .hr { fill: transparent; stroke: #323c46; stroke-opacity: 0.035; stroke-width: 13; } .dc { stroke: #fa5a3c; fill: #fa5a3c; } .x { stroke: white; stroke-width: 1; } .hl .th { fill: #1b9bff; } .hl .tht {  } .fhl .bg { fill: #e7f4ff; } .fhls .bg {  } .r.hl { stroke: #1b9bff; } .dim { opacity: 0.25; }</style><g class="drawing-wrapper" transform="translate(-38.00000000000011, 5.000000000000021) scale(1,1)"><g class="rs"><path d="M 203.04 384.14 m -1, 0 a 1,1 0 1,0 2,0 a 1,1 0 1,0 -2,0 M 203.04 384.14 m -0.5, 0 a 0.5,0.5 0 1,0 1,0 a 0.5,0.5 0 1,0 -1,0  M203.04 384.14 L203.04 384.14 215.04 384.14 M 203.04 390.14 m -1, 0 a 1,1 0 1,0 2,0 a 1,1 0 1,0 -2,0 M 203.04 390.14 m -0.5, 0 a 0.5,0.5 0 1,0 1,0 a 0.5,0.5 0 1,0 -1,0  M203.04 390.14 L203.04 390.14 210.04 384.14 203.04 378.14 M 203.04 378.14 m -1, 0 a 1,1 0 1,0 2,0 a 1,1 0 1,0 -2,0 M 203.04 378.14 m -0.5, 0 a 0.5,0.5 0 1,0 1,0 a 0.5,0.5 0 1,0 -1,0  M215.04 384.14 Q 269 384.14, 322.95 354.14 T 430.86 324.14 M 442.86 324.14 m -1, 0 a 1,1 0 1,0 2,0 a 1,1 0 1,0 -2,0 M 442.86 324.14 m -0.5, 0 a 0.5,0.5 0 1,0 1,0 a 0.5,0.5 0 1,0 -1,0  M442.86 324.14 L442.86 324.14 430.86 324.14 M436.86 330.14 L436.86 330.14 436.86 318.14" id="h2139614862" class="r"></path><path d="M 438.57 157 m -1, 0 a 1,1 0 1,0 2,0 a 1,1 0 1,0 -2,0 M 438.57 157 m -0.5, 0 a 0.5,0.5 0 1,0 1,0 a 0.5,0.5 0 1,0 -1,0  M438.57 157 L438.57 157 426.57 157 M 438.57 163 m -1, 0 a 1,1 0 1,0 2,0 a 1,1 0 1,0 -2,0 M 438.57 163 m -0.5, 0 a 0.5,0.5 0 1,0 1,0 a 0.5,0.5 0 1,0 -1,0  M438.57 163 L438.57 163 431.57 157 438.57 151 M 438.57 151 m -1, 0 a 1,1 0 1,0 2,0 a 1,1 0 1,0 -2,0 M 438.57 151 m -0.5, 0 a 0.5,0.5 0 1,0 1,0 a 0.5,0.5 0 1,0 -1,0  M426.57 157 Q 365.77 157, 304.97 127 T 183.37 97 M 171.37 97 m -1, 0 a 1,1 0 1,0 2,0 a 1,1 0 1,0 -2,0 M 171.37 97 m -0.5, 0 a 0.5,0.5 0 1,0 1,0 a 0.5,0.5 0 1,0 -1,0  M171.37 97 L171.37 97 183.37 97 M177.37 103 L177.37 103 177.37 91" id="h1923744986" class="r"></path><path d="M 438.57 182 m -1, 0 a 1,1 0 1,0 2,0 a 1,1 0 1,0 -2,0 M 438.57 182 m -0.5, 0 a 0.5,0.5 0 1,0 1,0 a 0.5,0.5 0 1,0 -1,0  M438.57 182 L438.57 182 426.57 182 M 438.57 188 m -1, 0 a 1,1 0 1,0 2,0 a 1,1 0 1,0 -2,0 M 438.57 188 m -0.5, 0 a 0.5,0.5 0 1,0 1,0 a 0.5,0.5 0 1,0 -1,0  M438.57 188 L438.57 188 431.57 182 438.57 176 M 438.57 176 m -1, 0 a 1,1 0 1,0 2,0 a 1,1 0 1,0 -2,0 M 438.57 176 m -0.5, 0 a 0.5,0.5 0 1,0 1,0 a 0.5,0.5 0 1,0 -1,0  M426.57 182 Q 373.69 182, 320.81 258.07 T 215.04 334.14 M 203.04 334.14 m -1, 0 a 1,1 0 1,0 2,0 a 1,1 0 1,0 -2,0 M 203.04 334.14 m -0.5, 0 a 0.5,0.5 0 1,0 1,0 a 0.5,0.5 0 1,0 -1,0  M203.04 334.14 L203.04 334.14 215.04 334.14 M209.04 340.14 L209.04 340.14 209.04 328.14" id="h1992811477" class="r"></path></g><g class="hrs"></g><g class="ts"><svg width="101.36" height="125" x="442.86" y="267.14" id="h41485699" class="t"><rect height="40" width="101.36" class="th"></rect><text x="13" y="25" class="tht">Regions</text><rect height="85" width="101.36" class="t-bg"></rect><text x="13" y="61" class="tf pk">id<tspan x="88.36" class="ty">int</tspan></text><path d="M7,14A2,2 0 0,1 5,12A2,2 0 0,1 7,10A2,2 0 0,1 9,12A2,2 0 0,1 7,14M12.65,10C11.83,7.67 9.61,6 7, 6A6, 6 0 0, 0 1, 12A6, 6 0 0, 0 7, 18C9.61, 18 11.83, 16.33 12.65, 14H17V18H21V14H23V10H12.65Z" class="i pk" transform="translate(55.686171875, 48) scale(0.65)"></path><text x="13" y="86" class="tf">city<tspan x="88.36" class="ty">string</tspan></text><text x="13" y="111" class="tf">state<tspan x="88.36" class="ty">string</tspan></text></svg><svg width="108.04" height="125" x="95" y="277.14" id="h3889921393" class="t"><rect height="40" width="108.04" class="th"></rect><text x="13" y="25" class="tht">Users</text><rect height="85" width="108.04" class="t-bg"></rect><text x="13" y="61" class="tf pk">id<tspan x="95.04" class="ty">int</tspan></text><path d="M7,14A2,2 0 0,1 5,12A2,2 0 0,1 7,10A2,2 0 0,1 9,12A2,2 0 0,1 7,14M12.65,10C11.83,7.67 9.61,6 7, 6A6, 6 0 0, 0 1, 12A6, 6 0 0, 0 7, 18C9.61, 18 11.83, 16.33 12.65, 14H17V18H21V14H23V10H12.65Z" class="i pk" transform="translate(62.366171875000006, 48) scale(0.65)"></path><text x="13" y="86" class="tf">name<tspan x="95.04" class="ty">string</tspan></text><text x="13" y="111" class="tf fk">region_id<tspan x="95.04" class="ty">int</tspan></text></svg><svg width="111.37" height="100" x="60" y="40" id="h1234641711" class="t"><rect height="40" width="111.37" class="th"></rect><text x="13" y="25" class="tht">Categories</text><rect height="60" width="111.37" class="t-bg"></rect><text x="13" y="61" class="tf pk">id<tspan x="98.37" class="ty">int</tspan></text><path d="M7,14A2,2 0 0,1 5,12A2,2 0 0,1 7,10A2,2 0 0,1 9,12A2,2 0 0,1 7,14M12.65,10C11.83,7.67 9.61,6 7, 6A6, 6 0 0, 0 1, 12A6, 6 0 0, 0 7, 18C9.61, 18 11.83, 16.33 12.65, 14H17V18H21V14H23V10H12.65Z" class="i pk" transform="translate(65.696171875, 48) scale(0.65)"></path><text x="13" y="86" class="tf">category<tspan x="98.37" class="ty">text</tspan></text></svg><svg width="163.08" height="200" x="438.57" y="25" id="h124459622" class="t"><rect height="40" width="163.08" class="th"></rect><text x="13" y="25" class="tht">Postings</text><rect height="160" width="163.08" class="t-bg"></rect><text x="13" y="61" class="tf pk">id<tspan x="150.08" class="ty">int</tspan></text><path d="M7,14A2,2 0 0,1 5,12A2,2 0 0,1 7,10A2,2 0 0,1 9,12A2,2 0 0,1 7,14M12.65,10C11.83,7.67 9.61,6 7, 6A6, 6 0 0, 0 1, 12A6, 6 0 0, 0 7, 18C9.61, 18 11.83, 16.33 12.65, 14H17V18H21V14H23V10H12.65Z" class="i pk" transform="translate(117.40617187500001, 48) scale(0.65)"></path><text x="13" y="86" class="tf">title<tspan x="150.08" class="ty">string</tspan></text><text x="13" y="111" class="tf">text<tspan x="150.08" class="ty">string</tspan></text><text x="13" y="136" class="tf fk">category_id<tspan x="150.08" class="ty">int</tspan></text><text x="13" y="161" class="tf fk">user_id<tspan x="150.08" class="ty">int</tspan></text><text x="13" y="186" class="tf fk">region_id<tspan x="150.08" class="ty">&gt;-Regions.id</tspan></text></svg></g></g><text class="qdbd-link" x="10" y="20">www.quickdatabasediagrams.com</text></svg>