<svg class="diagram-root" style="background: #f5f6f6" xmlns="http://www.w3.org/2000/svg" xmlns:xlink="http://www.w3.org/1999/xlink"><style>.diagram-root { font-family: "Helvetica Neue", sans-serif; font-size: 12px; } .t { overflow: visible; } .t-bg { y: 40; fill: #fff;   } .th { fill: #005aa0;   } .tht { fill: #fff; font-size: 14px;  } .tf { fill: #323c46; overflow: visible; } .tf.pk { fill: #005aa0; font-weight: bold; } .tf.fk { font-weight: bold; } .ty { fill: #adb1b5; font-weight: normal; text-anchor: end; } .r { fill: transparent; stroke: #c3c3c3; stroke-width: 1; } .l { stroke: 1; } .i { fill: #c2c7ce; stroke: #c2c7ce; } .i.ix { fill: #afb3b6; stroke: #000; } .fa { fill: transparent; overflow: visible; } .fa .bg.hover { fill: #f7f7f7; } .c { cy: 12; r: 4; stroke: #d2d2dc; fill: #d2d2dc; } .hr { fill: transparent; stroke: #323c46; stroke-opacity: 0.035; stroke-width: 13; } .dc { stroke: #fa5a3c; fill: #fa5a3c; } .x { stroke: white; stroke-width: 1; } .hl .th { fill: #1b9bff; } .hl .tht {  } .fhl .bg { fill: #e7f4ff; } .fhls .bg {  } .r.hl { stroke: #1b9bff; } .dim { opacity: 0.25; }</style><g class="drawing-wrapper" transform="translate(2, 18) scale(1,1)"><g class="rs"><path d="M 672.06 157.95999999999998 m -1, 0 a 1,1 0 1,0 2,0 a 1,1 0 1,0 -2,0 M 672.06 157.95999999999998 m -0.5, 0 a 0.5,0.5 0 1,0 1,0 a 0.5,0.5 0 1,0 -1,0  M672.06 157.95999999999998 L672.06 157.95999999999998 660.06 157.95999999999998 M 672.06 163.95999999999998 m -1, 0 a 1,1 0 1,0 2,0 a 1,1 0 1,0 -2,0 M 672.06 163.95999999999998 m -0.5, 0 a 0.5,0.5 0 1,0 1,0 a 0.5,0.5 0 1,0 -1,0  M672.06 163.95999999999998 L672.06 163.95999999999998 665.06 157.95999999999998 672.06 151.95999999999998 M 672.06 151.95999999999998 m -1, 0 a 1,1 0 1,0 2,0 a 1,1 0 1,0 -2,0 M 672.06 151.95999999999998 m -0.5, 0 a 0.5,0.5 0 1,0 1,0 a 0.5,0.5 0 1,0 -1,0  M660.06 157.95999999999998 C 380.20399999999995 157.95999999999998, 466.4 323.67, 516.4 323.67 M 528.4 323.67 m -1, 0 a 1,1 0 1,0 2,0 a 1,1 0 1,0 -2,0 M 528.4 323.67 m -0.5, 0 a 0.5,0.5 0 1,0 1,0 a 0.5,0.5 0 1,0 -1,0  M528.4 323.67 L528.4 323.67 516.4 323.67 M522.4 329.67 L522.4 329.67 522.4 317.67" id="h2189700874" class="r"></path><path d="M 672.06 182.95999999999998 m -1, 0 a 1,1 0 1,0 2,0 a 1,1 0 1,0 -2,0 M 672.06 182.95999999999998 m -0.5, 0 a 0.5,0.5 0 1,0 1,0 a 0.5,0.5 0 1,0 -1,0  M672.06 182.95999999999998 L672.06 182.95999999999998 660.06 182.95999999999998 M 672.06 188.95999999999998 m -1, 0 a 1,1 0 1,0 2,0 a 1,1 0 1,0 -2,0 M 672.06 188.95999999999998 m -0.5, 0 a 0.5,0.5 0 1,0 1,0 a 0.5,0.5 0 1,0 -1,0  M672.06 188.95999999999998 L672.06 188.95999999999998 665.06 182.95999999999998 672.06 176.95999999999998 M 672.06 176.95999999999998 m -1, 0 a 1,1 0 1,0 2,0 a 1,1 0 1,0 -2,0 M 672.06 176.95999999999998 m -0.5, 0 a 0.5,0.5 0 1,0 1,0 a 0.5,0.5 0 1,0 -1,0  M660.06 182.95999999999998 Q 615.86 182.95999999999998, 571.65 143.79 T 483.24 104.61428571428581 M 471.24 104.61428571428581 m -1, 0 a 1,1 0 1,0 2,0 a 1,1 0 1,0 -2,0 M 471.24 104.61428571428581 m -0.5, 0 a 0.5,0.5 0 1,0 1,0 a 0.5,0.5 0 1,0 -1,0  M471.24 104.61428571428581 L471.24 104.61428571428581 483.24 104.61428571428581 M477.24 110.61428571428581 L477.24 110.61428571428581 477.24 98.61428571428581" id="h1338555065" class="r"></path><path d="M 528.4 348.67 m -1, 0 a 1,1 0 1,0 2,0 a 1,1 0 1,0 -2,0 M 528.4 348.67 m -0.5, 0 a 0.5,0.5 0 1,0 1,0 a 0.5,0.5 0 1,0 -1,0  M528.4 348.67 L528.4 348.67 516.4 348.67 M 528.4 354.67 m -1, 0 a 1,1 0 1,0 2,0 a 1,1 0 1,0 -2,0 M 528.4 354.67 m -0.5, 0 a 0.5,0.5 0 1,0 1,0 a 0.5,0.5 0 1,0 -1,0  M528.4 354.67 L528.4 354.67 521.4 348.67 528.4 342.67 M 528.4 342.67 m -1, 0 a 1,1 0 1,0 2,0 a 1,1 0 1,0 -2,0 M 528.4 342.67 m -0.5, 0 a 0.5,0.5 0 1,0 1,0 a 0.5,0.5 0 1,0 -1,0  M516.4 348.67 Q 428.81 348.67, 341.22 217.84 T 166.04 87 M 154.04 87 m -1, 0 a 1,1 0 1,0 2,0 a 1,1 0 1,0 -2,0 M 154.04 87 m -0.5, 0 a 0.5,0.5 0 1,0 1,0 a 0.5,0.5 0 1,0 -1,0  M154.04 87 L154.04 87 166.04 87 M160.04 93 L160.04 93 160.04 81" id="h2158537739" class="r"></path><path d="M 528.4 373.67 m -1, 0 a 1,1 0 1,0 2,0 a 1,1 0 1,0 -2,0 M 528.4 373.67 m -0.5, 0 a 0.5,0.5 0 1,0 1,0 a 0.5,0.5 0 1,0 -1,0  M528.4 373.67 L528.4 373.67 516.4 373.67 M 528.4 379.67 m -1, 0 a 1,1 0 1,0 2,0 a 1,1 0 1,0 -2,0 M 528.4 379.67 m -0.5, 0 a 0.5,0.5 0 1,0 1,0 a 0.5,0.5 0 1,0 -1,0  M528.4 379.67 L528.4 379.67 521.4 373.67 528.4 367.67 M 528.4 367.67 m -1, 0 a 1,1 0 1,0 2,0 a 1,1 0 1,0 -2,0 M 528.4 367.67 m -0.5, 0 a 0.5,0.5 0 1,0 1,0 a 0.5,0.5 0 1,0 -1,0  M516.4 373.67 Q 433.33 373.67, 350.25 322.6 T 184.09 271.52 M 172.09 271.52 m -1, 0 a 1,1 0 1,0 2,0 a 1,1 0 1,0 -2,0 M 172.09 271.52 m -0.5, 0 a 0.5,0.5 0 1,0 1,0 a 0.5,0.5 0 1,0 -1,0  M172.09 271.52 L172.09 271.52 184.09 271.52 M178.09 277.52 L178.09 277.52 178.09 265.52" id="h2482949021" class="r"></path></g><g class="hrs"></g><g class="ts"><svg width="124.04" height="125" x="30" y="30" id="h16875077" class="t"><rect height="40" width="124.04" class="th"></rect><text x="13" y="25" class="tht">Doctors</text><rect height="85" width="124.04" class="t-bg"></rect><text x="13" y="61" class="tf pk">ID<tspan x="111.04" class="ty">int</tspan></text><path d="M7,14A2,2 0 0,1 5,12A2,2 0 0,1 7,10A2,2 0 0,1 9,12A2,2 0 0,1 7,14M12.65,10C11.83,7.67 9.61,6 7, 6A6, 6 0 0, 0 1, 12A6, 6 0 0, 0 7, 18C9.61, 18 11.83, 16.33 12.65, 14H17V18H21V14H23V10H12.65Z" class="i pk" transform="translate(78.366171875, 48) scale(0.65)"></path><text x="13" y="86" class="tf">Name<tspan x="111.04" class="ty">string</tspan></text><text x="13" y="111" class="tf">Specialty<tspan x="111.04" class="ty">string</tspan></text></svg><svg width="128.04" height="150" x="44.05" y="214.52" id="h3676580549" class="t"><rect height="40" width="128.04" class="th"></rect><text x="13" y="25" class="tht">Patients</text><rect height="110" width="128.04" class="t-bg"></rect><text x="13" y="61" class="tf pk">ID<tspan x="115.03999999999999" class="ty">int</tspan></text><path d="M7,14A2,2 0 0,1 5,12A2,2 0 0,1 7,10A2,2 0 0,1 9,12A2,2 0 0,1 7,14M12.65,10C11.83,7.67 9.61,6 7, 6A6, 6 0 0, 0 1, 12A6, 6 0 0, 0 7, 18C9.61, 18 11.83, 16.33 12.65, 14H17V18H21V14H23V10H12.65Z" class="i pk" transform="translate(82.36617187499999, 48) scale(0.65)"></path><text x="13" y="86" class="tf">Name<tspan x="115.03999999999999" class="ty">string</tspan></text><text x="13" y="111" class="tf">Insurance<tspan x="115.03999999999999" class="ty">string</tspan></text><text x="13" y="136" class="tf">Birthday<tspan x="115.03999999999999" class="ty">int</tspan></text></svg><svg width="116.05" height="150" x="672.06" y="75.96" id="h3047656030" class="t"><rect height="40" width="116.05" class="th"></rect><text x="13" y="25" class="tht">Diagnoses</text><rect height="110" width="116.05" class="t-bg"></rect><text x="13" y="61" class="tf pk">ID<tspan x="103.05" class="ty">int</tspan></text><path d="M7,14A2,2 0 0,1 5,12A2,2 0 0,1 7,10A2,2 0 0,1 9,12A2,2 0 0,1 7,14M12.65,10C11.83,7.67 9.61,6 7, 6A6, 6 0 0, 0 1, 12A6, 6 0 0, 0 7, 18C9.61, 18 11.83, 16.33 12.65, 14H17V18H21V14H23V10H12.65Z" class="i pk" transform="translate(70.376171875, 48) scale(0.65)"></path><text x="13" y="86" class="tf fk">visit_id<tspan x="103.05" class="ty">int</tspan></text><text x="13" y="111" class="tf fk">disease_id<tspan x="103.05" class="ty">int</tspan></text><text x="13" y="136" class="tf">notes<tspan x="103.05" class="ty">string</tspan></text></svg><svg width="110.72" height="150" x="528.4" y="266.67" id="h3280351983" class="t"><rect height="40" width="110.72" class="th"></rect><text x="13" y="25" class="tht">Visits</text><rect height="110" width="110.72" class="t-bg"></rect><text x="13" y="61" class="tf pk">ID<tspan x="97.72" class="ty">int</tspan></text><path d="M7,14A2,2 0 0,1 5,12A2,2 0 0,1 7,10A2,2 0 0,1 9,12A2,2 0 0,1 7,14M12.65,10C11.83,7.67 9.61,6 7, 6A6, 6 0 0, 0 1, 12A6, 6 0 0, 0 7, 18C9.61, 18 11.83, 16.33 12.65, 14H17V18H21V14H23V10H12.65Z" class="i pk" transform="translate(65.046171875, 48) scale(0.65)"></path><text x="13" y="86" class="tf fk">doctor_id<tspan x="97.72" class="ty">int</tspan></text><text x="13" y="111" class="tf fk">patient_id<tspan x="97.72" class="ty">int</tspan></text><text x="13" y="136" class="tf">date<tspan x="97.72" class="ty">int</tspan></text></svg><svg width="133.38" height="125" x="337.86142857142875" y="47.614285714285806" id="h1794948770" class="t"><rect height="40" width="133.38" class="th"></rect><text x="13" y="25" class="tht">Diseases</text><rect height="85" width="133.38" class="t-bg"></rect><text x="13" y="61" class="tf pk">ID<tspan x="120.38" class="ty">int</tspan></text><path d="M7,14A2,2 0 0,1 5,12A2,2 0 0,1 7,10A2,2 0 0,1 9,12A2,2 0 0,1 7,14M12.65,10C11.83,7.67 9.61,6 7, 6A6, 6 0 0, 0 1, 12A6, 6 0 0, 0 7, 18C9.61, 18 11.83, 16.33 12.65, 14H17V18H21V14H23V10H12.65Z" class="i pk" transform="translate(87.706171875, 48) scale(0.65)"></path><text x="13" y="86" class="tf">name<tspan x="120.38" class="ty">string</tspan></text><text x="13" y="111" class="tf">description<tspan x="120.38" class="ty">string</tspan></text></svg></g></g><text class="qdbd-link" x="10" y="20">www.quickdatabasediagrams.com</text></svg>