<svg class="diagram-root" style="background: #f5f6f6" xmlns="http://www.w3.org/2000/svg" xmlns:xlink="http://www.w3.org/1999/xlink"><style>.diagram-root { font-family: "Helvetica Neue", sans-serif; font-size: 12px; } .t { overflow: visible; } .t-bg { y: 40; fill: #fff;   } .th { fill: #005aa0;   } .tht { fill: #fff; font-size: 14px;  } .tf { fill: #323c46; overflow: visible; } .tf.pk { fill: #005aa0; font-weight: bold; } .tf.fk { font-weight: bold; } .ty { fill: #adb1b5; font-weight: normal; text-anchor: end; } .r { fill: transparent; stroke: #c3c3c3; stroke-width: 1; } .l { stroke: 1; } .i { fill: #c2c7ce; stroke: #c2c7ce; } .i.ix { fill: #afb3b6; stroke: #000; } .fa { fill: transparent; overflow: visible; } .fa .bg.hover { fill: #f7f7f7; } .c { cy: 12; r: 4; stroke: #d2d2dc; fill: #d2d2dc; } .hr { fill: transparent; stroke: #323c46; stroke-opacity: 0.035; stroke-width: 13; } .dc { stroke: #fa5a3c; fill: #fa5a3c; } .x { stroke: white; stroke-width: 1; } .hl .th { fill: #1b9bff; } .hl .tht {  } .fhl .bg { fill: #e7f4ff; } .fhls .bg {  } .r.hl { stroke: #1b9bff; } .dim { opacity: 0.25; }</style><g class="drawing-wrapper" transform="translate(2, 18) scale(1,1)"><g class="rs"><path d="M 351.08 112 m -1, 0 a 1,1 0 1,0 2,0 a 1,1 0 1,0 -2,0 M 351.08 112 m -0.5, 0 a 0.5,0.5 0 1,0 1,0 a 0.5,0.5 0 1,0 -1,0  M351.08 112 L351.08 112 363.08 112 M 351.08 118 m -1, 0 a 1,1 0 1,0 2,0 a 1,1 0 1,0 -2,0 M 351.08 118 m -0.5, 0 a 0.5,0.5 0 1,0 1,0 a 0.5,0.5 0 1,0 -1,0  M351.08 118 L351.08 118 358.08 112 351.08 106 M 351.08 106 m -1, 0 a 1,1 0 1,0 2,0 a 1,1 0 1,0 -2,0 M 351.08 106 m -0.5, 0 a 0.5,0.5 0 1,0 1,0 a 0.5,0.5 0 1,0 -1,0  M363.08 112 Q 539.31 112, 715.54 99.5 T 1068 87 M 1080 87 m -1, 0 a 1,1 0 1,0 2,0 a 1,1 0 1,0 -2,0 M 1080 87 m -0.5, 0 a 0.5,0.5 0 1,0 1,0 a 0.5,0.5 0 1,0 -1,0  M1080 87 L1080 87 1068 87 M1074 93 L1074 93 1074 81" id="h2372472583" class="r"></path><path d="M 205 137 m -1, 0 a 1,1 0 1,0 2,0 a 1,1 0 1,0 -2,0 M 205 137 m -0.5, 0 a 0.5,0.5 0 1,0 1,0 a 0.5,0.5 0 1,0 -1,0  M205 137 L205 137 193 137 M 205 143 m -1, 0 a 1,1 0 1,0 2,0 a 1,1 0 1,0 -2,0 M 205 143 m -0.5, 0 a 0.5,0.5 0 1,0 1,0 a 0.5,0.5 0 1,0 -1,0  M205 143 L205 143 198 137 205 131 M 205 131 m -1, 0 a 1,1 0 1,0 2,0 a 1,1 0 1,0 -2,0 M 205 131 m -0.5, 0 a 0.5,0.5 0 1,0 1,0 a 0.5,0.5 0 1,0 -1,0  M193 137 C -137 137, -32 87, 18 87 M 30 87 m -1, 0 a 1,1 0 1,0 2,0 a 1,1 0 1,0 -2,0 M 30 87 m -0.5, 0 a 0.5,0.5 0 1,0 1,0 a 0.5,0.5 0 1,0 -1,0  M30 87 L30 87 18 87 M24 93 L24 93 24 81" id="h4125972419" class="r"></path><path d="M 205 162 m -1, 0 a 1,1 0 1,0 2,0 a 1,1 0 1,0 -2,0 M 205 162 m -0.5, 0 a 0.5,0.5 0 1,0 1,0 a 0.5,0.5 0 1,0 -1,0  M205 162 L205 162 193 162 M 205 168 m -1, 0 a 1,1 0 1,0 2,0 a 1,1 0 1,0 -2,0 M 205 168 m -0.5, 0 a 0.5,0.5 0 1,0 1,0 a 0.5,0.5 0 1,0 -1,0  M205 168 L205 168 198 162 205 156 M 205 156 m -1, 0 a 1,1 0 1,0 2,0 a 1,1 0 1,0 -2,0 M 205 156 m -0.5, 0 a 0.5,0.5 0 1,0 1,0 a 0.5,0.5 0 1,0 -1,0  M193 162 C -137 162, -32 87, 18 87 M 30 87 m -1, 0 a 1,1 0 1,0 2,0 a 1,1 0 1,0 -2,0 M 30 87 m -0.5, 0 a 0.5,0.5 0 1,0 1,0 a 0.5,0.5 0 1,0 -1,0  M30 87 L30 87 18 87 M24 93 L24 93 24 81" id="h4200024611" class="r"></path><path d="M 351.08 262 m -1, 0 a 1,1 0 1,0 2,0 a 1,1 0 1,0 -2,0 M 351.08 262 m -0.5, 0 a 0.5,0.5 0 1,0 1,0 a 0.5,0.5 0 1,0 -1,0  M351.08 262 L351.08 262 363.08 262 M 351.08 268 m -1, 0 a 1,1 0 1,0 2,0 a 1,1 0 1,0 -2,0 M 351.08 268 m -0.5, 0 a 0.5,0.5 0 1,0 1,0 a 0.5,0.5 0 1,0 -1,0  M351.08 268 L351.08 268 358.08 262 351.08 256 M 351.08 256 m -1, 0 a 1,1 0 1,0 2,0 a 1,1 0 1,0 -2,0 M 351.08 256 m -0.5, 0 a 0.5,0.5 0 1,0 1,0 a 0.5,0.5 0 1,0 -1,0  M363.08 262 Q 408.06 262, 453.04 174.5 T 543 87 M 555 87 m -1, 0 a 1,1 0 1,0 2,0 a 1,1 0 1,0 -2,0 M 555 87 m -0.5, 0 a 0.5,0.5 0 1,0 1,0 a 0.5,0.5 0 1,0 -1,0  M555 87 L555 87 543 87 M549 93 L549 93 549 81" id="h3697012797" class="r"></path><path d="M 380 137 m -1, 0 a 1,1 0 1,0 2,0 a 1,1 0 1,0 -2,0 M 380 137 m -0.5, 0 a 0.5,0.5 0 1,0 1,0 a 0.5,0.5 0 1,0 -1,0  M380 137 L380 137 368 137 M 380 143 m -1, 0 a 1,1 0 1,0 2,0 a 1,1 0 1,0 -2,0 M 380 143 m -0.5, 0 a 0.5,0.5 0 1,0 1,0 a 0.5,0.5 0 1,0 -1,0  M380 143 L380 143 373 137 380 131 M 380 131 m -1, 0 a 1,1 0 1,0 2,0 a 1,1 0 1,0 -2,0 M 380 131 m -0.5, 0 a 0.5,0.5 0 1,0 1,0 a 0.5,0.5 0 1,0 -1,0  M368 137 Q 312.84 137, 257.68 112 T 147.36 87 M 135.36 87 m -1, 0 a 1,1 0 1,0 2,0 a 1,1 0 1,0 -2,0 M 135.36 87 m -0.5, 0 a 0.5,0.5 0 1,0 1,0 a 0.5,0.5 0 1,0 -1,0  M135.36 87 L135.36 87 147.36 87 M141.36 93 L141.36 93 141.36 81" id="h1752145770" class="r"></path><path d="M 730 112 m -1, 0 a 1,1 0 1,0 2,0 a 1,1 0 1,0 -2,0 M 730 112 m -0.5, 0 a 0.5,0.5 0 1,0 1,0 a 0.5,0.5 0 1,0 -1,0  M730 112 L730 112 718 112 M 730 118 m -1, 0 a 1,1 0 1,0 2,0 a 1,1 0 1,0 -2,0 M 730 118 m -0.5, 0 a 0.5,0.5 0 1,0 1,0 a 0.5,0.5 0 1,0 -1,0  M730 118 L730 118 723 112 730 106 M 730 106 m -1, 0 a 1,1 0 1,0 2,0 a 1,1 0 1,0 -2,0 M 730 106 m -0.5, 0 a 0.5,0.5 0 1,0 1,0 a 0.5,0.5 0 1,0 -1,0  M718 112 Q 629.27 112, 540.54 99.5 T 363.08 87 M 351.08 87 m -1, 0 a 1,1 0 1,0 2,0 a 1,1 0 1,0 -2,0 M 351.08 87 m -0.5, 0 a 0.5,0.5 0 1,0 1,0 a 0.5,0.5 0 1,0 -1,0  M351.08 87 L351.08 87 363.08 87 M357.08 93 L357.08 93 357.08 81" id="h883084757" class="r"></path><path d="M 730 137 m -1, 0 a 1,1 0 1,0 2,0 a 1,1 0 1,0 -2,0 M 730 137 m -0.5, 0 a 0.5,0.5 0 1,0 1,0 a 0.5,0.5 0 1,0 -1,0  M730 137 L730 137 718 137 M 730 143 m -1, 0 a 1,1 0 1,0 2,0 a 1,1 0 1,0 -2,0 M 730 143 m -0.5, 0 a 0.5,0.5 0 1,0 1,0 a 0.5,0.5 0 1,0 -1,0  M730 143 L730 143 723 137 730 131 M 730 131 m -1, 0 a 1,1 0 1,0 2,0 a 1,1 0 1,0 -2,0 M 730 131 m -0.5, 0 a 0.5,0.5 0 1,0 1,0 a 0.5,0.5 0 1,0 -1,0  M718 137 Q 672.85 137, 627.69 112 T 537.39 87 M 525.39 87 m -1, 0 a 1,1 0 1,0 2,0 a 1,1 0 1,0 -2,0 M 525.39 87 m -0.5, 0 a 0.5,0.5 0 1,0 1,0 a 0.5,0.5 0 1,0 -1,0  M525.39 87 L525.39 87 537.39 87 M531.39 93 L531.39 93 531.39 81" id="h2561147591" class="r"></path><path d="M 905 112 m -1, 0 a 1,1 0 1,0 2,0 a 1,1 0 1,0 -2,0 M 905 112 m -0.5, 0 a 0.5,0.5 0 1,0 1,0 a 0.5,0.5 0 1,0 -1,0  M905 112 L905 112 893 112 M 905 118 m -1, 0 a 1,1 0 1,0 2,0 a 1,1 0 1,0 -2,0 M 905 118 m -0.5, 0 a 0.5,0.5 0 1,0 1,0 a 0.5,0.5 0 1,0 -1,0  M905 118 L905 118 898 112 905 106 M 905 106 m -1, 0 a 1,1 0 1,0 2,0 a 1,1 0 1,0 -2,0 M 905 106 m -0.5, 0 a 0.5,0.5 0 1,0 1,0 a 0.5,0.5 0 1,0 -1,0  M893 112 Q 804.1 112, 715.2 99.5 T 537.39 87 M 525.39 87 m -1, 0 a 1,1 0 1,0 2,0 a 1,1 0 1,0 -2,0 M 525.39 87 m -0.5, 0 a 0.5,0.5 0 1,0 1,0 a 0.5,0.5 0 1,0 -1,0  M525.39 87 L525.39 87 537.39 87 M531.39 93 L531.39 93 531.39 81" id="h1914947893" class="r"></path><path d="M 905 137 m -1, 0 a 1,1 0 1,0 2,0 a 1,1 0 1,0 -2,0 M 905 137 m -0.5, 0 a 0.5,0.5 0 1,0 1,0 a 0.5,0.5 0 1,0 -1,0  M905 137 L905 137 893 137 M 905 143 m -1, 0 a 1,1 0 1,0 2,0 a 1,1 0 1,0 -2,0 M 905 143 m -0.5, 0 a 0.5,0.5 0 1,0 1,0 a 0.5,0.5 0 1,0 -1,0  M905 143 L905 143 898 137 905 131 M 905 131 m -1, 0 a 1,1 0 1,0 2,0 a 1,1 0 1,0 -2,0 M 905 131 m -0.5, 0 a 0.5,0.5 0 1,0 1,0 a 0.5,0.5 0 1,0 -1,0  M893 137 Q 760.52 137, 628.04 112 T 363.08 87 M 351.08 87 m -1, 0 a 1,1 0 1,0 2,0 a 1,1 0 1,0 -2,0 M 351.08 87 m -0.5, 0 a 0.5,0.5 0 1,0 1,0 a 0.5,0.5 0 1,0 -1,0  M351.08 87 L351.08 87 363.08 87 M357.08 93 L357.08 93 357.08 81" id="h2105621532" class="r"></path></g><g class="hrs"></g><g class="ts"><svg width="105.36" height="125" x="30" y="30" id="h3010508784" class="t"><rect height="40" width="105.36" class="th"></rect><text x="13" y="25" class="tht">Teams</text><rect height="85" width="105.36" class="t-bg"></rect><text x="13" y="61" class="tf pk">id<tspan x="92.36" class="ty">int</tspan></text><path d="M7,14A2,2 0 0,1 5,12A2,2 0 0,1 7,10A2,2 0 0,1 9,12A2,2 0 0,1 7,14M12.65,10C11.83,7.67 9.61,6 7, 6A6, 6 0 0, 0 1, 12A6, 6 0 0, 0 7, 18C9.61, 18 11.83, 16.33 12.65, 14H17V18H21V14H23V10H12.65Z" class="i pk" transform="translate(59.686171875, 48) scale(0.65)"></path><text x="13" y="86" class="tf">name<tspan x="92.36" class="ty">string</tspan></text><text x="13" y="111" class="tf">city<tspan x="92.36" class="ty">string</tspan></text></svg><svg width="146.08" height="250" x="205" y="30" id="h3829905542" class="t"><rect height="40" width="146.08" class="th"></rect><text x="13" y="25" class="tht">Matches</text><rect height="210" width="146.08" class="t-bg"></rect><text x="13" y="61" class="tf pk">id<tspan x="133.08" class="ty">int</tspan></text><path d="M7,14A2,2 0 0,1 5,12A2,2 0 0,1 7,10A2,2 0 0,1 9,12A2,2 0 0,1 7,14M12.65,10C11.83,7.67 9.61,6 7, 6A6, 6 0 0, 0 1, 12A6, 6 0 0, 0 7, 18C9.61, 18 11.83, 16.33 12.65, 14H17V18H21V14H23V10H12.65Z" class="i pk" transform="translate(100.40617187500001, 48) scale(0.65)"></path><text x="13" y="86" class="tf fk">season_id<tspan x="133.08" class="ty">int</tspan></text><text x="13" y="111" class="tf fk">home_team_id<tspan x="133.08" class="ty">int</tspan></text><text x="13" y="136" class="tf fk">away_team_id<tspan x="133.08" class="ty">int</tspan></text><text x="13" y="161" class="tf">location<tspan x="133.08" class="ty">int</tspan></text><text x="13" y="186" class="tf">date<tspan x="133.08" class="ty">int</tspan></text><text x="13" y="211" class="tf">start_time<tspan x="133.08" class="ty">int</tspan></text><text x="13" y="236" class="tf fk">head_referee_id<tspan x="133.08" class="ty">int</tspan></text></svg><svg width="145.39" height="125" x="380" y="30" id="h4103274130" class="t"><rect height="40" width="145.39" class="th"></rect><text x="13" y="25" class="tht">Players</text><rect height="85" width="145.39" class="t-bg"></rect><text x="13" y="61" class="tf pk">id<tspan x="132.39" class="ty">int</tspan></text><path d="M7,14A2,2 0 0,1 5,12A2,2 0 0,1 7,10A2,2 0 0,1 9,12A2,2 0 0,1 7,14M12.65,10C11.83,7.67 9.61,6 7, 6A6, 6 0 0, 0 1, 12A6, 6 0 0, 0 7, 18C9.61, 18 11.83, 16.33 12.65, 14H17V18H21V14H23V10H12.65Z" class="i pk" transform="translate(99.71617187499999, 48) scale(0.65)"></path><text x="13" y="86" class="tf">name<tspan x="132.39" class="ty">string</tspan></text><text x="13" y="111" class="tf fk">current_team_id<tspan x="132.39" class="ty">int</tspan></text></svg><svg width="90" height="100" x="555" y="30" id="h233791535" class="t"><rect height="40" width="90" class="th"></rect><text x="13" y="25" class="tht">Referee</text><rect height="60" width="90" class="t-bg"></rect><text x="13" y="61" class="tf pk">id<tspan x="77" class="ty">int</tspan></text><path d="M7,14A2,2 0 0,1 5,12A2,2 0 0,1 7,10A2,2 0 0,1 9,12A2,2 0 0,1 7,14M12.65,10C11.83,7.67 9.61,6 7, 6A6, 6 0 0, 0 1, 12A6, 6 0 0, 0 7, 18C9.61, 18 11.83, 16.33 12.65, 14H17V18H21V14H23V10H12.65Z" class="i pk" transform="translate(44.326171875, 48) scale(0.65)"></path><text x="13" y="86" class="tf">name<tspan x="77" class="ty">int</tspan></text></svg><svg width="107.37" height="125" x="730" y="30" id="h2207534861" class="t"><rect height="40" width="107.37" class="th"></rect><text x="13" y="25" class="tht">Goals</text><rect height="85" width="107.37" class="t-bg"></rect><text x="13" y="61" class="tf pk">id<tspan x="94.37" class="ty">int</tspan></text><path d="M7,14A2,2 0 0,1 5,12A2,2 0 0,1 7,10A2,2 0 0,1 9,12A2,2 0 0,1 7,14M12.65,10C11.83,7.67 9.61,6 7, 6A6, 6 0 0, 0 1, 12A6, 6 0 0, 0 7, 18C9.61, 18 11.83, 16.33 12.65, 14H17V18H21V14H23V10H12.65Z" class="i pk" transform="translate(61.696171875000005, 48) scale(0.65)"></path><text x="13" y="86" class="tf fk">match_id<tspan x="94.37" class="ty">int</tspan></text><text x="13" y="111" class="tf fk">player_id<tspan x="94.37" class="ty">int</tspan></text></svg><svg width="147.71" height="150" x="905" y="30" id="h1247361070" class="t"><rect height="40" width="147.71" class="th"></rect><text x="13" y="25" class="tht">Lineups</text><rect height="110" width="147.71" class="t-bg"></rect><text x="13" y="61" class="tf pk">id<tspan x="134.71" class="ty">int</tspan></text><path d="M7,14A2,2 0 0,1 5,12A2,2 0 0,1 7,10A2,2 0 0,1 9,12A2,2 0 0,1 7,14M12.65,10C11.83,7.67 9.61,6 7, 6A6, 6 0 0, 0 1, 12A6, 6 0 0, 0 7, 18C9.61, 18 11.83, 16.33 12.65, 14H17V18H21V14H23V10H12.65Z" class="i pk" transform="translate(102.03617187500001, 48) scale(0.65)"></path><text x="13" y="86" class="tf fk">player_id<tspan x="134.71" class="ty">int</tspan></text><text x="13" y="111" class="tf fk">match_id<tspan x="134.71" class="ty">int</tspan></text><text x="13" y="136" class="tf fk">team_id<tspan x="134.71" class="ty">&gt;-Teams.id</tspan></text></svg><svg width="128.71" height="125" x="1080" y="30" id="h3133071897" class="t"><rect height="40" width="128.71" class="th"></rect><text x="13" y="25" class="tht">Season</text><rect height="85" width="128.71" class="t-bg"></rect><text x="13" y="61" class="tf pk">id<tspan x="115.71000000000001" class="ty">int</tspan></text><path d="M7,14A2,2 0 0,1 5,12A2,2 0 0,1 7,10A2,2 0 0,1 9,12A2,2 0 0,1 7,14M12.65,10C11.83,7.67 9.61,6 7, 6A6, 6 0 0, 0 1, 12A6, 6 0 0, 0 7, 18C9.61, 18 11.83, 16.33 12.65, 14H17V18H21V14H23V10H12.65Z" class="i pk" transform="translate(83.03617187500001, 48) scale(0.65)"></path><text x="13" y="86" class="tf">start_date<tspan x="115.71000000000001" class="ty">string</tspan></text><text x="13" y="111" class="tf">end_date<tspan x="115.71000000000001" class="ty">string</tspan></text></svg></g></g><text class="qdbd-link" x="10" y="20">www.quickdatabasediagrams.com</text></svg>